<?xml version="1.0" encoding="utf-8"?>
<!-- Generator: Adobe Illustrator 22.0.0, SVG Export Plug-In . SVG Version: 6.00 Build 0)  -->
<svg version="1.1" id="Layer_1" xmlns="http://www.w3.org/2000/svg" xmlns:xlink="http://www.w3.org/1999/xlink" x="0px" y="0px"
	 viewBox="0 0 53.4 44.8" style="enable-background:new 0 0 53.4 44.8;" xml:space="preserve">
<style type="text/css">
	.st0{fill:#D1D3D4;}
</style>
<path class="st0" d="M9.8,33.9c4.6,5,11.8,8,19.7,8c7.9,0,15.1-3,19.7-8H9.8L9.8,33.9z M28.3,8.9c6.7,3.3,15.7,12,14.9,23.4H51
	c0.3,0,0.6,0.2,0.7,0.5c0.1,0.3,0.1,0.6-0.1,0.9c-4.8,6.2-13.1,9.9-22.1,9.9c-8.9,0-17-3.6-21.9-9.6H2.6c-0.4,0-0.7-0.2-0.9-0.6
	c-0.2-0.3-0.1-0.8,0.1-1.1L26.6,1.7c0.3-0.4,0.8-0.4,1.2-0.2c0.3,0.2,0.5,0.5,0.5,0.9V8.9L28.3,8.9z M26.7,32.3V4.1L3.9,32.3H26.7
	L26.7,32.3z M33.4,32.1h8.2c0.1-2.3-0.2-4.6-0.9-6.7L33.4,32.1L33.4,32.1z M28.3,22.1l6.7-6.2c-2-2.2-4.4-4-6.7-5.3V22.1L28.3,22.1z
	 M38.8,20.9l-10.5,9.6v1.6H31l9.2-8.4C39.8,22.8,39.3,21.8,38.8,20.9L38.8,20.9z M28.3,28.3l9.6-8.8c-0.5-0.8-1.1-1.6-1.8-2.4
	l-7.8,7.2V28.3L28.3,28.3z"/>
</svg>
