<?xml version="1.0" encoding="utf-8"?>
<!-- Generator: Adobe Illustrator 19.2.1, SVG Export Plug-In . SVG Version: 6.00 Build 0)  -->
<svg version="1.1" id="Layer_1" xmlns="http://www.w3.org/2000/svg" xmlns:xlink="http://www.w3.org/1999/xlink" x="0px" y="0px"
	 viewBox="0 0 32.9 43.8" style="enable-background:new 0 0 32.9 43.8;" xml:space="preserve">
<style type="text/css">
	.st0{fill-rule:evenodd;clip-rule:evenodd;fill:#FFFFFF;stroke:#FFFFFF;stroke-miterlimit:10;}
</style>
<g>
	<path class="st0" d="M8,27.5l-7.4,9.4c-0.2,0.2-0.1,0.5,0.1,0.7l0,0l5.6,4.5c1.2,0.9,2.6,1.3,4,1.2c1.4-0.1,2.7-0.8,3.7-2
		c3.8-4.6,7.2-9.6,10.2-14.8c3-5.2,5.6-10.7,7.7-16.2c0.5-1.4,0.4-2.9-0.1-4.2c-0.6-1.3-1.6-2.4-3-2.9l-6.7-2.6
		c-0.3-0.1-0.5,0-0.6,0.3l0,0L17,11.9c-0.1,0.3,0,0.5,0.3,0.6l0,0v0l3.8,1.5c-1.3,2.7-2.7,5.5-4.2,8.2l0,0c-1.5,2.7-3.2,5.3-4.9,7.7
		l-3.2-2.5C8.5,27.3,8.2,27.3,8,27.5L8,27.5L8,27.5z M1.7,37.1l6.8-8.6l3.2,2.5l0,0l0,0c0.2,0.2,0.5,0.1,0.7-0.1
		c1.9-2.6,3.6-5.4,5.3-8.2l0,0c1.6-2.9,3.2-5.8,4.5-8.7l0,0c0.1-0.3,0-0.5-0.3-0.6l-3.8-1.5l4.1-10.2l6.3,2.4c1.2,0.5,2,1.3,2.5,2.4
		c0.5,1.1,0.5,2.3,0.1,3.5C29,15.5,26.4,20.9,23.4,26c-3,5.2-6.4,10.1-10.1,14.7c-0.8,1-1.9,1.5-3,1.6c-1.1,0.1-2.3-0.2-3.3-1
		L1.7,37.1L1.7,37.1z M22.2,14L22.2,14L22.2,14z"/>
</g>
</svg>
