<?xml version="1.0" encoding="utf-8"?>
<!-- Generator: Adobe Illustrator 19.2.1, SVG Export Plug-In . SVG Version: 6.00 Build 0)  -->
<svg version="1.1" id="Layer_1" xmlns="http://www.w3.org/2000/svg" xmlns:xlink="http://www.w3.org/1999/xlink" x="0px" y="0px"
	 viewBox="0 0 42.7 28.2" style="enable-background:new 0 0 42.7 28.2;" xml:space="preserve">
<style type="text/css">
	.st0{fill-rule:evenodd;clip-rule:evenodd;fill:#FFFFFF;stroke:#FFFFFF;stroke-miterlimit:10;}
</style>
<path class="st0" d="M41.2,25.2L29.1,16l-7.5,5.6c-0.2,0.1-0.4,0.1-0.6,0L13.6,16L1.5,25.2c0.1,0.4,0.3,0.8,0.5,1l0,0
	c0.3,0.3,0.8,0.5,1.3,0.5h36.1c0.5,0,1-0.2,1.3-0.6C41,25.9,41.2,25.6,41.2,25.2L41.2,25.2z M28.8,15l-7.5,5.6L13.9,15l0,0L1.4,5.6
	V3.3c0-0.5,0.2-1,0.6-1.3c0.3-0.3,0.8-0.6,1.3-0.6h36.1c0.5,0,1,0.2,1.3,0.5l0,0c0.3,0.3,0.5,0.8,0.5,1.3v2.3L28.8,15L28.8,15
	L28.8,15z M29.9,15.4l11.4-8.6V24L29.9,15.4L29.9,15.4z M1.4,6.8l11.4,8.6L1.4,24V6.8L1.4,6.8z M3.3,0.5h36.1c0.8,0,1.5,0.3,2,0.8
	l0,0c0.5,0.5,0.8,1.2,0.8,2v21.6c0,0.8-0.3,1.5-0.8,2c-0.5,0.5-1.2,0.8-2,0.8H3.3c-0.8,0-1.5-0.3-2-0.8l0,0l0,0l0,0
	c-0.5-0.5-0.8-1.2-0.8-2V3.3c0-0.8,0.3-1.5,0.8-2C1.8,0.8,2.5,0.5,3.3,0.5z"/>
</svg>
