<?xml version="1.0" encoding="utf-8"?>
<!-- Generator: Adobe Illustrator 22.0.0, SVG Export Plug-In . SVG Version: 6.00 Build 0)  -->
<svg version="1.1" id="Layer_1" xmlns="http://www.w3.org/2000/svg" xmlns:xlink="http://www.w3.org/1999/xlink" x="0px" y="0px"
	 viewBox="0 0 76.2 46.9" style="enable-background:new 0 0 76.2 46.9;" xml:space="preserve">
<style type="text/css">
	.st0{fill:#D1D3D4;}
</style>
<path class="st0" d="M39.5,18.1c-0.5-0.2-0.9-0.2-1.4-0.2c-0.5,0-1,0.1-1.5,0.3c-3,1.3-5.6,6.5-7.3,14.7c-0.6,2.7-0.1,5.1,1.4,7
	c1.7,2,4.4,3.2,7.5,3.2c3.1,0,5.8-1.2,7.5-3.2c1.5-1.8,2-4.3,1.4-7C45.3,24.6,42.6,19.4,39.5,18.1L39.5,18.1z M38.1,5.8l-1.5,10.6
	c0.5-0.1,1-0.2,1.5-0.2c0.5,0,1,0.1,1.5,0.2L38.1,5.8L38.1,5.8z M16.7,36.2c-0.8,0-1.5,0.7-1.5,1.5c0,0.8,0.7,1.5,1.5,1.5
	c0.8,0,1.5-0.7,1.5-1.5C18.2,36.8,17.6,36.2,16.7,36.2L16.7,36.2z M59.5,36.2c-0.8,0-1.5,0.7-1.5,1.5c0,0.8,0.7,1.5,1.5,1.5
	c0.8,0,1.5-0.7,1.5-1.5C61,36.8,60.4,36.2,59.5,36.2L59.5,36.2z M19.6,36.5l0.1,0c2.9,0.4,5.7,0.5,7.8,0.2c-0.2-1.3-0.2-2.7,0.1-4.2
	l0.1-0.7c-2-0.4-4.9-0.3-8,0.1L9.1,33.5c-2,0.3-3,0.6-3.5,0.8c0.5,0.2,1.5,0.5,3.5,0.8l5.1,0.7c0.6-0.7,1.5-1.2,2.5-1.2
	C18.1,34.5,19.2,35.4,19.6,36.5L19.6,36.5z M62,35.8l5.1-0.7c2-0.3,3-0.6,3.5-0.8c-0.5-0.2-1.5-0.5-3.5-0.8L56.5,32
	c-3.1-0.4-6-0.5-8-0.1l0.1,0.6c0.3,1.5,0.3,2.9,0.1,4.2c2,0.3,4.8,0.2,7.8-0.2l0.1,0c0.4-1.2,1.6-2,2.9-2C60.6,34.5,61.5,35,62,35.8
	L62,35.8z M67.3,36.7l-4.7,0.7c0,0.1,0,0.2,0,0.3c0,1.7-1.4,3.1-3.1,3.1c-1.5,0-2.8-1.1-3.1-2.6c-1.7,0.2-3.3,0.3-4.8,0.3
	c-1.2,0-2.4-0.1-3.3-0.2c-0.3,0.9-0.8,1.8-1.4,2.5c-2,2.4-5.2,3.8-8.7,3.8c-3.6,0-6.8-1.4-8.7-3.8c-0.6-0.8-1.1-1.6-1.5-2.6
	c-1,0.2-2.1,0.2-3.3,0.2c-1.5,0-3.1-0.1-4.8-0.3c-0.3,1.5-1.5,2.6-3.1,2.6c-1.7,0-3.1-1.4-3.1-3.1c0-0.1,0-0.2,0-0.3l-4.7-0.7
	c-4.7-0.7-5.3-1.5-5.3-2.4c0-0.8,0.6-1.7,5.3-2.4l10.6-1.5c3.3-0.5,6.4-0.5,8.6-0.1c1.3-5.3,3.4-10.8,6.7-13l1.7-12.2
	c0.2-1.8,0.6-2.9,1.5-2.9c1,0,1.3,1.1,1.5,2.9l1.7,12.2c3.3,2.2,5.4,7.7,6.7,13.1c2.2-0.4,5.3-0.4,8.6,0.1l10.6,1.5
	c4.7,0.7,5.3,1.5,5.3,2.4C72.7,35.1,72,36,67.3,36.7L67.3,36.7z M38.1,39c-1.4,0-2.6-1.2-2.6-2.6c0-1.4,1.2-2.6,2.6-2.6
	c1.4,0,2.6,1.2,2.6,2.6C40.7,37.8,39.6,39,38.1,39L38.1,39z M38.1,35.4c-0.5,0-1,0.4-1,1c0,0.5,0.4,1,1,1c0.5,0,1-0.4,1-1
	C39.1,35.9,38.7,35.4,38.1,35.4L38.1,35.4z M42.4,30.4h-8.5c-0.9,0-1.7-0.7-1.7-1.7v-2.4c0-0.9,0.7-1.7,1.7-1.7h8.5
	c0.9,0,1.7,0.7,1.7,1.7v2.4C44.1,29.6,43.3,30.4,42.4,30.4L42.4,30.4z M33.8,26.3v2.4h8.6v-2.4H33.8L33.8,26.3z"/>
</svg>
