<?xml version="1.0" encoding="utf-8"?>
<!-- Generator: Adobe Illustrator 22.0.0, SVG Export Plug-In . SVG Version: 6.00 Build 0)  -->
<svg version="1.1" id="Layer_1" xmlns="http://www.w3.org/2000/svg" xmlns:xlink="http://www.w3.org/1999/xlink" x="0px" y="0px"
	 viewBox="0 0 43.6 58.2" style="enable-background:new 0 0 43.6 58.2;" xml:space="preserve">
<style type="text/css">
	.st0{fill:#D1D3D4;}
</style>
<g>
	<path class="st0" d="M25.9,12.5V4.4h-8.1v8.1H25.9L25.9,12.5z M39.8,21.6l-3.7-7.4H7.5l-3.7,7.4H39.8L39.8,21.6z M37.6,55.4H23.8
		c-0.5,0-0.8-0.4-0.8-0.8v-9.3h-2.3v9.3c0,0.5-0.4,0.8-0.8,0.8H6c-0.5,0-0.8-0.4-0.8-0.8V23.3H2.5c-0.3,0-0.5-0.1-0.7-0.4
		c-0.2-0.2-0.2-0.5,0-0.8L6.3,13c0.1-0.3,0.4-0.5,0.7-0.5h9.1V3.6c0-0.5,0.4-0.8,0.8-0.8h9.8c0.5,0,0.8,0.4,0.8,0.8v8.9h9.1
		c0.3,0,0.6,0.2,0.7,0.5l4.4,9c0.1,0.1,0.1,0.3,0.1,0.5c0,0.5-0.4,0.8-0.8,0.8h-2.6v31.3C38.5,55,38.1,55.4,37.6,55.4L37.6,55.4z
		 M24.6,53.8h12.2V23.3h-30v30.5H19v-9.3c0-0.5,0.4-0.8,0.8-0.8h3.9c0.5,0,0.8,0.4,0.8,0.8V53.8L24.6,53.8z M20.6,9v1.4
		c0,0.3-0.1,0.5-0.2,0.7c-0.1,0.1-0.3,0.2-0.5,0.2c-0.2,0-0.4-0.1-0.5-0.2c-0.1-0.1-0.2-0.4-0.2-0.7V6.5c0-0.3,0.1-0.5,0.2-0.7
		c0.1-0.1,0.3-0.2,0.5-0.2c0.2,0,0.4,0.1,0.5,0.2c0.1,0.1,0.2,0.4,0.2,0.7v1.3H23V6.5C23,6.2,23,6,23.1,5.8c0.1-0.1,0.3-0.2,0.5-0.2
		c0.2,0,0.4,0.1,0.5,0.2c0.1,0.1,0.2,0.4,0.2,0.7v3.9c0,0.3-0.1,0.5-0.2,0.7c-0.1,0.1-0.3,0.2-0.5,0.2c-0.2,0-0.4-0.1-0.5-0.2
		C23,11,23,10.8,23,10.4V9H20.6L20.6,9z M32.4,50.1h-3.9c-0.5,0-0.8-0.4-0.8-0.8v-4.8c0-0.5,0.4-0.8,0.8-0.8h3.9
		c0.5,0,0.8,0.4,0.8,0.8v4.8C33.2,49.7,32.8,50.1,32.4,50.1L32.4,50.1z M29.3,48.4h2.3v-3.2h-2.3V48.4L29.3,48.4z M32.4,41.2h-3.9
		c-0.5,0-0.8-0.4-0.8-0.8v-4.8c0-0.5,0.4-0.8,0.8-0.8h3.9c0.5,0,0.8,0.4,0.8,0.8v4.8C33.2,40.9,32.8,41.2,32.4,41.2L32.4,41.2z
		 M29.3,39.6h2.3v-3.2h-2.3V39.6L29.3,39.6z M32.4,32.4h-3.9c-0.5,0-0.8-0.4-0.8-0.8v-4.8c0-0.5,0.4-0.8,0.8-0.8h3.9
		c0.5,0,0.8,0.4,0.8,0.8v4.8C33.2,32,32.8,32.4,32.4,32.4L32.4,32.4z M29.3,30.8h2.3v-3.2h-2.3V30.8L29.3,30.8z M15.1,50.1h-3.9
		c-0.5,0-0.8-0.4-0.8-0.8v-4.8c0-0.5,0.4-0.8,0.8-0.8h3.9c0.5,0,0.8,0.4,0.8,0.8v4.8C16,49.7,15.6,50.1,15.1,50.1L15.1,50.1z
		 M12.1,48.4h2.3v-3.2h-2.3V48.4L12.1,48.4z M15.1,41.2h-3.9c-0.5,0-0.8-0.4-0.8-0.8v-4.8c0-0.5,0.4-0.8,0.8-0.8h3.9
		c0.5,0,0.8,0.4,0.8,0.8v4.8C16,40.9,15.6,41.2,15.1,41.2L15.1,41.2z M12.1,39.6h2.3v-3.2h-2.3V39.6L12.1,39.6z M15.1,32.4h-3.9
		c-0.5,0-0.8-0.4-0.8-0.8v-4.8c0-0.5,0.4-0.8,0.8-0.8h3.9c0.5,0,0.8,0.4,0.8,0.8v4.8C16,32,15.6,32.4,15.1,32.4L15.1,32.4z
		 M12.1,30.8h2.3v-3.2h-2.3V30.8L12.1,30.8z M23.8,41.2h-3.9c-0.5,0-0.8-0.4-0.8-0.8v-4.8c0-0.5,0.4-0.8,0.8-0.8h3.9
		c0.5,0,0.8,0.4,0.8,0.8v4.8C24.6,40.9,24.2,41.2,23.8,41.2L23.8,41.2z M20.7,39.6h2.3v-3.2h-2.3V39.6L20.7,39.6z M23.8,32.4h-3.9
		c-0.5,0-0.8-0.4-0.8-0.8v-4.8c0-0.5,0.4-0.8,0.8-0.8h3.9c0.5,0,0.8,0.4,0.8,0.8v4.8C24.6,32,24.2,32.4,23.8,32.4L23.8,32.4z
		 M20.7,30.8h2.3v-3.2h-2.3V30.8L20.7,30.8z"/>
</g>
</svg>
